<svg id="svg" version="1.1" xmlns="http://www.w3.org/2000/svg" xmlns:xlink="http://www.w3.org/1999/xlink" width="400" height="149.99700005999878" viewBox="0, 0, 400,149.99700005999878"><g id="svgg"><path id="path3" d="M201.208 31.282 C 201.369 31.323,201.631 31.323,201.792 31.282 C 201.952 31.240,201.821 31.205,201.500 31.205 C 201.179 31.205,201.048 31.240,201.208 31.282 M305.875 53.417 C 305.877 53.783,305.911 53.914,305.951 53.706 C 305.991 53.499,305.990 53.199,305.948 53.040 C 305.906 52.880,305.874 53.050,305.875 53.417 M178.205 53.500 C 178.205 53.821,178.240 53.952,178.282 53.792 C 178.323 53.631,178.323 53.369,178.282 53.208 C 178.240 53.048,178.205 53.179,178.205 53.500 M167.903 91.667 C 167.903 93.454,167.928 94.185,167.958 93.292 C 167.988 92.398,167.988 90.935,167.958 90.042 C 167.928 89.148,167.903 89.879,167.903 91.667 M173.903 91.667 C 173.903 93.454,173.928 94.185,173.958 93.292 C 173.988 92.398,173.988 90.935,173.958 90.042 C 173.928 89.148,173.903 89.879,173.903 91.667 M177.574 105.500 C 177.574 108.204,177.597 109.310,177.625 107.958 C 177.653 106.606,177.653 104.394,177.625 103.042 C 177.597 101.690,177.574 102.796,177.574 105.500 M146.562 108.583 C 146.563 109.592,146.590 109.983,146.623 109.452 C 146.657 108.922,146.656 108.097,146.623 107.619 C 146.589 107.141,146.562 107.575,146.562 108.583 " stroke="none" fill="#8c8c8c" fill-rule="evenodd" style="--darkreader-inline-fill: var(--darkreader-background-8c8c8c, #596064); --darkreader-inline-stroke: none;" data-darkreader-inline-fill="" data-darkreader-inline-stroke="" data-index="1"></path><path id="path4" d="M111.014 35.397 L 110.612 35.917 111.089 35.463 C 111.351 35.214,111.532 34.980,111.491 34.944 C 111.450 34.907,111.236 35.111,111.014 35.397 M106.623 36.729 C 105.669 37.316,105.640 37.455,106.583 36.922 C 107.542 36.380,107.611 36.331,107.403 36.339 C 107.319 36.341,106.968 36.517,106.623 36.729 M109.821 36.880 C 109.533 37.104,108.578 38.667,108.730 38.667 C 108.782 38.667,108.937 38.449,109.075 38.182 C 109.213 37.916,109.421 37.597,109.538 37.473 C 110.169 36.805,110.316 36.497,109.821 36.880 M103.833 38.750 C 103.428 39.162,103.135 39.500,103.181 39.500 C 103.226 39.500,103.595 39.162,104.000 38.750 C 104.405 38.337,104.699 38.000,104.653 38.000 C 104.607 38.000,104.238 38.337,103.833 38.750 M101.926 39.089 C 101.749 39.223,101.688 39.333,101.792 39.333 C 101.895 39.333,102.027 39.258,102.083 39.167 C 102.140 39.075,102.266 39.000,102.364 39.000 C 102.480 39.000,102.474 39.080,102.346 39.235 C 102.196 39.415,102.197 39.499,102.351 39.594 C 102.479 39.673,102.508 39.648,102.432 39.525 C 102.364 39.415,102.431 39.285,102.587 39.226 C 102.806 39.141,102.817 39.092,102.639 38.979 C 102.347 38.795,102.307 38.801,101.926 39.089 M95.868 41.792 C 95.522 42.710,95.333 43.389,95.405 43.460 C 95.445 43.500,95.594 43.141,95.736 42.662 C 95.878 42.183,96.080 41.688,96.184 41.562 C 96.298 41.425,96.308 41.333,96.207 41.333 C 96.116 41.333,95.963 41.540,95.868 41.792 M109.011 41.440 C 109.005 41.544,109.148 41.807,109.328 42.023 C 109.508 42.240,109.658 42.323,109.661 42.208 C 109.664 42.094,109.603 42.000,109.525 42.000 C 109.448 42.000,109.303 41.831,109.203 41.625 C 109.104 41.419,109.017 41.335,109.011 41.440 M113.678 41.417 C 113.678 41.508,113.786 41.771,113.917 42.000 C 114.048 42.229,114.155 42.342,114.155 42.250 C 114.155 42.158,114.048 41.896,113.917 41.667 C 113.786 41.438,113.678 41.325,113.678 41.417 M112.102 46.625 C 112.046 48.252,111.972 50.333,111.938 51.250 C 111.898 52.283,111.922 52.663,111.999 52.250 C 112.134 51.523,112.384 43.667,112.272 43.667 C 112.234 43.667,112.157 44.998,112.102 46.625 M97.351 45.583 C 97.342 45.675,97.515 46.313,97.734 47.000 C 97.954 47.688,98.141 48.175,98.149 48.083 C 98.158 47.992,97.985 47.354,97.766 46.667 C 97.546 45.979,97.359 45.492,97.351 45.583 M100.013 49.732 C 99.991 49.984,100.689 52.241,100.838 52.397 C 100.914 52.478,100.795 51.954,100.573 51.232 C 100.112 49.738,100.032 49.523,100.013 49.732 M116.058 53.260 C 115.866 53.850,115.757 54.333,115.817 54.333 C 115.940 54.333,116.562 52.339,116.468 52.246 C 116.435 52.213,116.251 52.669,116.058 53.260 M111.593 53.593 C 111.530 53.927,111.512 54.234,111.553 54.275 C 111.593 54.316,111.678 54.075,111.741 53.741 C 111.803 53.406,111.821 53.099,111.781 53.059 C 111.740 53.018,111.655 53.258,111.593 53.593 M115.154 54.958 L 114.750 55.417 115.250 55.000 C 115.525 54.771,115.781 54.565,115.819 54.542 C 115.858 54.519,115.814 54.500,115.723 54.500 C 115.633 54.500,115.376 54.706,115.154 54.958 M237.578 65.250 C 237.578 70.567,237.599 72.766,237.625 70.137 C 237.651 67.508,237.651 63.158,237.625 60.470 C 237.599 57.782,237.578 59.933,237.578 65.250 M116.055 57.417 C 116.055 58.058,116.086 58.300,116.122 57.955 C 116.158 57.609,116.157 57.084,116.120 56.788 C 116.083 56.492,116.054 56.775,116.055 57.417 M97.764 62.149 C 97.911 62.695,98.663 64.295,98.665 64.064 C 98.666 63.962,98.440 63.400,98.162 62.814 C 97.884 62.229,97.705 61.930,97.764 62.149 M111.194 64.757 C 111.087 64.991,111.003 65.273,111.007 65.383 C 111.010 65.493,111.124 65.328,111.259 65.016 C 111.544 64.360,111.484 64.121,111.194 64.757 M100.190 68.583 C 100.183 68.675,100.320 69.237,100.494 69.833 C 100.668 70.429,100.810 70.767,100.811 70.583 C 100.813 70.235,100.209 68.292,100.190 68.583 M109.415 70.844 C 109.313 71.588,109.379 72.025,109.562 71.819 C 109.690 71.675,109.779 70.000,109.658 70.000 C 109.588 70.000,109.479 70.380,109.415 70.844 M109.169 72.764 C 109.171 73.215,109.243 73.696,109.331 73.833 C 109.436 73.999,109.458 73.748,109.394 73.083 C 109.275 71.837,109.166 71.682,109.169 72.764 M101.039 73.500 C 101.039 73.821,101.073 73.952,101.115 73.792 C 101.157 73.631,101.157 73.369,101.115 73.208 C 101.073 73.048,101.039 73.179,101.039 73.500 M108.714 78.417 C 108.716 78.875,108.748 79.043,108.786 78.789 C 108.825 78.536,108.824 78.161,108.784 77.956 C 108.744 77.751,108.713 77.958,108.714 78.417 M222.128 85.287 C 222.428 85.325,222.878 85.324,223.128 85.286 C 223.378 85.248,223.133 85.217,222.583 85.218 C 222.033 85.219,221.828 85.250,222.128 85.287 M272.292 85.287 C 272.590 85.324,273.077 85.324,273.375 85.287 C 273.673 85.250,273.429 85.220,272.833 85.220 C 272.237 85.220,271.994 85.250,272.292 85.287 M102.293 90.167 C 102.340 90.854,102.407 91.448,102.440 91.486 C 102.555 91.619,102.466 89.747,102.337 89.333 C 102.263 89.098,102.244 89.461,102.293 90.167 M104.921 89.856 C 104.511 90.986,104.341 91.563,104.402 91.624 C 104.441 91.664,104.606 91.276,104.768 90.762 C 105.057 89.846,105.222 89.753,105.381 90.417 C 105.457 90.733,105.462 90.732,105.481 90.395 C 105.505 89.952,105.047 89.511,104.921 89.856 M102.500 92.796 C 102.500 93.447,102.560 94.017,102.634 94.063 C 102.796 94.163,102.779 91.890,102.616 91.727 C 102.552 91.663,102.500 92.144,102.500 92.796 M103.049 95.173 C 102.946 95.445,102.923 95.667,102.996 95.667 C 103.133 95.667,103.396 94.841,103.292 94.737 C 103.261 94.705,103.151 94.902,103.049 95.173 M98.040 100.264 C 98.095 100.352,98.496 100.680,98.932 100.993 C 99.368 101.306,99.681 101.491,99.626 101.403 C 99.572 101.315,99.171 100.987,98.735 100.673 C 98.298 100.360,97.986 100.176,98.040 100.264 M108.250 102.765 L 107.750 103.194 108.292 102.836 C 108.590 102.639,108.833 102.445,108.833 102.405 C 108.833 102.281,108.763 102.324,108.250 102.765 M219.125 104.623 C 219.698 104.656,220.635 104.656,221.208 104.623 C 221.781 104.591,221.313 104.564,220.167 104.564 C 219.021 104.564,218.552 104.591,219.125 104.623 M101.769 107.499 C 100.977 108.099,100.810 108.270,101.250 108.031 C 101.632 107.823,102.625 107.013,102.500 107.011 C 102.454 107.010,102.125 107.230,101.769 107.499 M108.960 107.417 C 109.003 107.600,109.049 107.918,109.061 108.123 C 109.073 108.328,109.176 108.532,109.290 108.576 C 109.467 108.643,109.486 108.248,109.326 107.833 C 109.308 107.787,109.303 107.694,109.314 107.625 C 109.324 107.556,109.264 107.500,109.179 107.500 C 109.094 107.500,108.992 107.406,108.953 107.292 C 108.913 107.177,108.917 107.233,108.960 107.417 M107.750 107.578 C 108.253 108.019,108.833 108.397,108.833 108.284 C 108.833 108.251,108.477 107.979,108.042 107.682 C 107.442 107.272,107.372 107.247,107.750 107.578 M104.250 108.271 C 103.909 108.561,103.866 108.638,104.116 108.514 C 104.317 108.414,104.528 108.257,104.584 108.166 C 104.755 107.888,105.158 107.978,105.803 108.437 L 106.417 108.875 105.833 108.358 C 105.126 107.733,104.897 107.720,104.250 108.271 M107.123 112.250 C 107.169 113.992,107.236 115.448,107.270 115.486 C 107.372 115.598,107.305 112.557,107.166 110.750 C 107.078 109.609,107.065 110.082,107.123 112.250 M102.295 112.307 C 102.366 116.234,102.436 116.652,102.467 113.333 C 102.482 111.638,102.440 110.163,102.372 110.057 C 102.305 109.950,102.270 110.963,102.295 112.307 M102.500 117.750 C 102.500 118.472,102.570 119.000,102.667 119.000 C 102.763 119.000,102.833 118.472,102.833 117.750 C 102.833 117.028,102.763 116.500,102.667 116.500 C 102.570 116.500,102.500 117.028,102.500 117.750 M107.214 120.417 C 107.216 120.875,107.248 121.043,107.286 120.789 C 107.325 120.536,107.324 120.161,107.284 119.956 C 107.244 119.751,107.213 119.958,107.214 120.417 M106.924 122.458 C 106.860 122.985,106.775 123.604,106.734 123.833 C 106.669 124.193,106.679 124.204,106.808 123.917 C 106.979 123.536,107.241 121.500,107.119 121.500 C 107.075 121.500,106.987 121.931,106.924 122.458 M291.885 124.750 C 291.886 125.300,291.917 125.505,291.954 125.205 C 291.991 124.906,291.990 124.456,291.952 124.205 C 291.914 123.955,291.884 124.200,291.885 124.750 M291.885 127.583 C 291.886 128.133,291.917 128.338,291.954 128.039 C 291.991 127.739,291.990 127.289,291.952 127.039 C 291.914 126.788,291.884 127.033,291.885 127.583 " stroke="none" fill="#a0e4f0" fill-rule="evenodd" style="--darkreader-inline-fill: var(--darkreader-background-a0e4f0, #105865); --darkreader-inline-stroke: none;" data-darkreader-inline-fill="" data-darkreader-inline-stroke="" data-index="2"></path><path id="path0" d="M197.583 31.601 C 181.126 34.538,172.973 52.536,182.193 65.579 C 189.199 75.492,203.628 78.652,214.156 72.579 C 215.795 71.634,215.878 72.258,213.473 67.444 L 211.446 63.387 210.385 64.031 C 207.293 65.910,202.295 66.528,198.417 65.511 C 189.321 63.126,185.900 52.622,191.867 45.397 C 195.840 40.586,204.644 39.402,210.501 42.891 L 211.444 43.452 213.472 39.392 C 215.864 34.604,215.713 35.324,214.495 34.497 C 210.804 31.990,202.944 30.645,197.583 31.601 M133.333 53.417 L 133.333 74.833 138.250 74.833 L 143.167 74.833 143.167 66.250 L 143.167 57.667 150.083 57.667 L 157.000 57.667 157.000 66.250 L 157.000 74.833 161.917 74.833 L 166.833 74.833 166.833 53.417 L 166.833 32.000 161.917 32.000 L 157.000 32.000 157.000 40.583 L 157.000 49.167 150.083 49.167 L 143.167 49.167 143.167 40.583 L 143.167 32.000 138.250 32.000 L 133.333 32.000 133.333 53.417 M271.833 53.415 L 271.833 74.859 279.708 74.789 C 286.887 74.725,287.716 74.689,289.083 74.378 C 309.744 69.685,312.018 41.295,292.358 33.502 C 289.080 32.202,288.424 32.127,279.625 32.045 L 271.833 31.972 271.833 53.415 M286.167 41.104 C 295.679 43.080,298.632 56.541,291.043 63.329 C 289.148 65.025,286.681 65.940,283.542 66.114 L 281.667 66.218 281.667 53.553 C 281.667 46.588,281.710 40.845,281.763 40.792 C 281.930 40.625,284.863 40.833,286.167 41.104 M144.000 89.992 L 144.000 94.833 145.000 94.833 L 146.000 94.833 146.000 92.833 L 146.000 90.833 148.167 90.833 L 150.333 90.833 150.333 92.833 L 150.333 94.833 151.250 94.833 L 152.167 94.833 152.167 90.000 L 152.167 85.167 151.250 85.167 L 150.333 85.167 150.333 87.167 L 150.333 89.167 148.172 89.167 L 146.011 89.167 145.964 87.208 L 145.917 85.250 144.958 85.200 L 144.000 85.150 144.000 89.992 M158.220 85.458 C 158.164 85.619,158.010 86.013,157.880 86.333 C 157.749 86.654,157.015 88.567,156.250 90.583 C 155.485 92.600,154.806 94.385,154.741 94.551 C 154.635 94.823,154.717 94.846,155.604 94.801 L 156.583 94.750 156.978 93.625 L 157.373 92.500 159.084 92.500 L 160.795 92.500 161.211 93.625 L 161.626 94.750 162.577 94.800 C 163.705 94.860,163.772 95.362,162.049 90.833 C 161.369 89.046,160.612 87.040,160.366 86.375 L 159.919 85.167 159.121 85.167 C 158.511 85.167,158.299 85.235,158.220 85.458 M166.000 90.000 L 166.000 94.833 166.917 94.833 L 167.833 94.833 167.838 91.625 L 167.843 88.417 169.130 90.872 C 170.901 94.252,170.939 94.252,172.667 90.909 L 173.917 88.491 173.962 91.662 L 174.007 94.833 174.920 94.833 L 175.833 94.833 175.833 89.992 L 175.833 85.151 174.808 85.200 L 173.783 85.250 172.420 87.875 C 171.670 89.318,171.014 90.542,170.962 90.593 C 170.911 90.645,170.219 89.445,169.425 87.927 L 167.981 85.167 166.990 85.167 L 166.000 85.167 166.000 90.000 M179.167 90.000 L 179.167 94.833 180.083 94.833 L 181.000 94.833 181.000 90.000 L 181.000 85.167 180.083 85.167 L 179.167 85.167 179.167 90.000 M184.333 90.000 L 184.333 94.833 187.750 94.833 L 191.167 94.833 191.167 94.083 L 191.167 93.333 188.750 93.333 L 186.333 93.333 186.333 89.250 L 186.333 85.167 185.333 85.167 L 184.333 85.167 184.333 90.000 M192.833 86.000 L 192.833 86.833 194.417 86.833 L 196.000 86.833 196.000 90.833 L 196.000 94.833 196.917 94.833 L 197.833 94.833 197.833 90.833 L 197.833 86.833 199.417 86.833 L 201.000 86.833 201.000 86.000 L 201.000 85.167 196.917 85.167 L 192.833 85.167 192.833 86.000 M206.083 85.505 C 201.171 87.398,202.362 94.855,207.583 94.899 C 212.031 94.938,213.989 89.366,210.582 86.367 C 209.244 85.190,207.680 84.890,206.083 85.505 M215.167 90.000 L 215.167 94.833 216.080 94.833 L 216.992 94.833 217.038 91.809 L 217.083 88.784 219.500 91.806 L 221.917 94.828 222.708 94.830 L 223.500 94.833 223.500 90.083 L 223.500 85.333 222.587 85.333 L 221.674 85.333 221.629 88.430 L 221.583 91.526 219.083 88.357 L 216.583 85.187 215.875 85.177 L 215.167 85.167 215.167 90.000 M233.917 85.570 C 229.148 87.556,230.534 94.947,235.667 94.907 C 237.064 94.896,237.996 94.531,238.958 93.616 C 239.659 92.950,239.641 92.784,238.821 92.299 L 238.141 91.898 237.521 92.519 C 235.705 94.334,232.833 92.840,232.833 90.080 C 232.833 87.354,235.690 85.824,237.465 87.598 C 238.144 88.277,238.024 88.266,238.831 87.732 L 239.489 87.296 239.078 86.758 C 237.998 85.342,235.722 84.818,233.917 85.570 M244.721 85.515 C 241.040 86.931,240.588 92.258,243.976 94.281 C 247.012 96.093,250.736 94.044,250.959 90.440 C 251.181 86.860,247.920 84.285,244.721 85.515 M253.691 88.449 C 253.783 93.594,255.106 95.358,258.550 94.928 C 261.312 94.583,262.167 92.958,262.167 88.048 L 262.167 85.167 261.263 85.167 L 260.359 85.167 260.305 88.292 C 260.234 92.330,259.929 93.051,258.196 93.284 C 256.246 93.545,255.773 92.652,255.667 88.500 L 255.583 85.250 254.607 85.199 L 253.632 85.149 253.691 88.449 M265.444 85.278 C 265.383 85.339,265.333 87.514,265.333 90.111 L 265.333 94.833 266.330 94.833 L 267.326 94.833 267.371 91.859 L 267.417 88.884 269.812 91.859 L 272.208 94.833 273.021 94.833 L 273.833 94.833 273.833 90.083 L 273.833 85.333 272.837 85.333 L 271.841 85.333 271.795 88.371 L 271.750 91.408 269.277 88.287 C 266.731 85.075,266.124 84.598,265.444 85.278 M276.333 86.000 L 276.333 86.833 277.917 86.833 L 279.500 86.833 279.500 90.833 L 279.500 94.833 280.417 94.833 L 281.333 94.833 281.333 90.833 L 281.333 86.833 282.833 86.833 L 284.333 86.833 284.333 86.000 L 284.333 85.167 280.333 85.167 L 276.333 85.167 276.333 86.000 M286.000 85.235 C 286.000 85.273,286.314 85.854,286.697 86.527 C 287.081 87.200,287.868 88.606,288.447 89.652 L 289.500 91.554 289.500 93.194 L 289.500 94.833 290.417 94.833 L 291.333 94.833 291.333 93.184 L 291.333 91.534 293.083 88.413 C 294.046 86.696,294.833 85.263,294.833 85.229 C 294.833 85.195,294.384 85.167,293.834 85.167 L 292.836 85.167 291.667 87.500 C 291.024 88.783,290.461 89.833,290.417 89.833 C 290.372 89.833,289.810 88.783,289.167 87.500 L 287.998 85.167 286.999 85.167 C 286.449 85.167,286.000 85.197,286.000 85.235 M208.840 87.208 C 211.258 88.428,210.792 92.750,208.187 93.271 C 206.432 93.622,204.846 92.130,204.837 90.120 C 204.826 87.654,206.831 86.195,208.840 87.208 M247.465 87.149 C 250.589 88.743,249.109 93.891,245.710 93.253 C 244.884 93.098,243.957 92.121,243.672 91.103 C 242.926 88.437,245.247 86.017,247.465 87.149 M159.847 89.458 C 160.115 90.249,160.333 90.957,160.333 91.031 C 160.333 91.106,159.736 91.167,159.006 91.167 L 157.679 91.167 157.980 90.458 C 158.146 90.069,158.453 89.233,158.663 88.601 C 159.103 87.271,159.109 87.275,159.847 89.458 M157.667 100.649 C 154.566 101.303,152.910 104.879,154.376 107.750 C 156.690 112.279,163.407 110.381,163.139 105.274 C 162.980 102.252,160.401 100.072,157.667 100.649 M192.279 100.731 C 187.978 101.930,187.568 108.136,191.667 109.987 C 192.781 110.491,193.926 110.442,195.066 109.842 L 196.000 109.351 196.000 109.842 C 196.000 110.320,196.022 110.333,196.833 110.333 L 197.667 110.333 197.667 107.833 L 197.667 105.333 195.917 105.333 L 194.167 105.333 194.167 106.000 L 194.167 106.667 195.083 106.667 C 196.135 106.667,196.354 107.118,195.625 107.785 C 193.561 109.672,190.659 108.315,190.670 105.467 C 190.682 102.592,193.637 101.108,195.406 103.089 L 195.899 103.641 196.529 103.196 C 197.300 102.650,197.308 102.542,196.625 101.839 C 195.584 100.767,193.789 100.310,192.279 100.731 M241.967 100.727 C 238.372 101.724,237.177 106.233,239.793 108.927 C 242.709 111.930,247.690 109.780,247.724 105.504 C 247.749 102.349,244.836 99.931,241.967 100.727 M253.917 100.660 C 248.161 101.601,249.252 110.760,255.065 110.294 C 256.533 110.176,259.195 108.549,258.648 108.105 C 258.613 108.076,258.269 107.879,257.885 107.668 L 257.187 107.283 256.755 107.797 C 255.574 109.201,253.187 108.840,252.312 107.125 C 250.714 103.993,254.163 100.623,256.536 102.997 L 257.168 103.629 257.838 103.144 C 259.342 102.054,256.480 100.241,253.917 100.660 M294.098 100.679 C 292.616 101.043,291.666 102.182,291.667 103.594 C 291.669 104.948,292.440 105.614,294.833 106.323 C 296.477 106.810,296.833 107.050,296.833 107.667 C 296.833 108.812,294.937 109.012,293.032 108.068 L 292.031 107.572 291.679 108.297 C 291.205 109.273,291.521 109.602,293.417 110.107 C 296.580 110.950,298.945 109.752,298.799 107.380 C 298.702 105.813,298.127 105.303,295.724 104.655 C 293.988 104.186,293.667 103.969,293.667 103.267 C 293.667 102.141,295.324 101.849,296.942 102.688 L 297.786 103.126 298.143 102.392 C 298.339 101.988,298.500 101.632,298.500 101.602 C 298.500 101.097,295.209 100.407,294.098 100.679 M143.436 101.208 C 143.589 101.506,144.378 102.934,145.190 104.380 L 146.667 107.010 146.667 108.672 L 146.667 110.333 147.583 110.333 L 148.500 110.333 148.500 108.569 L 148.500 106.806 150.167 103.817 C 152.135 100.287,152.050 100.667,150.874 100.667 L 149.916 100.667 148.749 102.914 C 148.108 104.150,147.545 105.162,147.497 105.164 C 147.450 105.165,146.906 104.154,146.290 102.917 L 145.168 100.667 144.163 100.667 L 143.158 100.667 143.436 101.208 M165.866 103.875 C 165.978 108.794,166.983 110.333,170.083 110.333 C 173.212 110.333,174.223 108.807,174.307 103.958 L 174.363 100.667 173.432 100.667 L 172.500 100.667 172.493 103.458 C 172.482 107.501,171.954 108.667,170.134 108.667 C 168.231 108.667,167.833 107.819,167.833 103.757 L 167.833 100.667 166.814 100.667 L 165.794 100.667 165.866 103.875 M177.667 105.500 L 177.667 110.333 178.583 110.333 L 179.500 110.333 179.500 107.229 L 179.500 104.124 181.958 107.220 L 184.417 110.316 185.208 110.325 L 186.000 110.333 186.000 105.500 L 186.000 100.667 185.000 100.667 L 184.000 100.667 184.000 103.765 L 184.000 106.862 181.542 103.767 L 179.083 100.672 178.375 100.669 L 177.667 100.667 177.667 105.500 M205.167 105.519 L 205.167 110.370 207.542 110.303 C 212.025 110.174,214.049 108.120,213.335 104.424 C 212.793 101.621,211.305 100.667,207.475 100.667 L 205.167 100.667 205.167 105.519 M216.333 105.500 L 216.333 110.333 219.667 110.333 L 223.000 110.333 223.000 109.500 L 223.000 108.667 220.583 108.667 L 218.167 108.667 218.167 107.417 L 218.167 106.167 220.167 106.167 L 222.167 106.167 222.167 105.417 L 222.167 104.667 220.167 104.667 L 218.167 104.667 218.167 103.500 L 218.167 102.333 220.500 102.333 L 222.833 102.333 222.833 101.500 L 222.833 100.667 219.583 100.667 L 216.333 100.667 216.333 105.500 M225.833 105.492 L 225.833 110.333 226.746 110.333 L 227.659 110.333 227.705 107.156 L 227.750 103.978 228.976 106.331 C 230.640 109.527,230.726 109.527,232.402 106.333 L 233.583 104.083 233.629 107.208 L 233.674 110.333 234.587 110.333 L 235.500 110.333 235.500 105.500 L 235.500 100.667 234.531 100.667 L 233.562 100.667 232.156 103.325 C 231.333 104.880,230.688 105.921,230.601 105.834 C 230.520 105.753,229.877 104.575,229.173 103.218 L 227.893 100.750 226.863 100.700 L 225.833 100.651 225.833 105.492 M261.333 105.500 L 261.333 110.333 262.250 110.333 L 263.167 110.333 263.167 108.667 L 263.167 107.000 264.068 107.000 L 264.970 107.000 266.000 108.667 L 267.030 110.333 268.015 110.333 C 269.213 110.333,269.214 110.462,268.000 108.487 C 266.829 106.581,266.867 106.757,267.506 106.219 C 268.864 105.077,268.988 103.091,267.787 101.723 C 266.968 100.790,266.498 100.667,263.755 100.667 L 261.333 100.667 261.333 105.500 M274.049 101.625 C 273.848 102.152,273.042 104.259,272.258 106.306 C 270.567 110.725,270.611 110.362,271.774 110.300 L 272.714 110.250 273.137 109.042 L 273.560 107.833 275.242 107.833 L 276.925 107.833 277.389 109.083 L 277.854 110.333 278.830 110.333 L 279.805 110.333 278.983 108.208 C 278.531 107.040,277.702 104.865,277.142 103.375 L 276.123 100.667 275.269 100.667 L 274.415 100.667 274.049 101.625 M281.333 101.500 L 281.333 102.333 282.917 102.333 L 284.500 102.333 284.500 106.333 L 284.500 110.333 285.417 110.333 L 286.333 110.333 286.333 106.333 L 286.333 102.333 287.833 102.333 L 289.333 102.333 289.333 101.500 L 289.333 100.667 285.333 100.667 L 281.333 100.667 281.333 101.500 M159.600 102.484 C 162.431 103.770,161.560 108.667,158.500 108.667 C 155.516 108.667,154.606 103.914,157.327 102.542 C 158.226 102.088,158.702 102.076,159.600 102.484 M243.819 102.329 C 245.128 102.705,245.899 104.004,245.805 105.673 C 245.570 109.826,240.353 109.616,240.337 105.453 C 240.328 103.209,241.917 101.784,243.819 102.329 M210.510 102.917 C 212.808 105.079,211.324 108.667,208.131 108.667 L 207.000 108.667 207.000 105.483 L 207.000 102.300 208.489 102.358 C 209.877 102.413,210.015 102.451,210.510 102.917 M266.321 102.772 C 267.395 104.137,266.580 105.333,264.577 105.333 L 263.167 105.333 263.167 103.833 L 263.167 102.333 264.571 102.333 C 265.890 102.333,265.997 102.360,266.321 102.772 M275.912 104.559 C 276.662 106.630,276.706 106.500,275.250 106.500 C 274.563 106.500,273.999 106.444,273.998 106.375 C 273.996 106.162,275.210 102.822,275.269 102.880 C 275.299 102.911,275.589 103.666,275.912 104.559 " stroke="none" fill="#040404" fill-rule="evenodd" style="--darkreader-inline-fill: var(--darkreader-background-040404, #030303); --darkreader-inline-stroke: none; opacity: 1; visibility: visible; fill: rgb(255, 255, 255);" data-darkreader-inline-fill="" data-darkreader-inline-stroke="" data-index="3"></path><path id="path1" d="M221.982 32.290 C 222.071 32.451,225.637 37.794,229.905 44.162 L 237.667 55.740 237.667 65.287 L 237.667 74.833 242.500 74.833 L 247.333 74.833 247.333 65.241 L 247.333 55.648 255.255 43.824 L 263.177 32.000 257.297 32.002 L 251.417 32.004 247.015 38.759 C 244.594 42.474,242.568 45.541,242.513 45.576 C 242.457 45.610,240.420 42.588,237.985 38.860 L 233.558 32.083 227.689 32.040 C 222.125 31.998,221.828 32.011,221.982 32.290 M109.809 35.321 C 108.044 35.966,105.332 37.564,104.059 38.708 C 103.078 39.591,102.560 39.838,102.279 39.557 C 102.219 39.497,102.253 39.347,102.355 39.224 C 102.592 38.938,102.501 38.942,101.894 39.245 C 101.330 39.526,100.194 41.524,99.765 42.989 C 98.988 45.643,100.335 52.510,102.064 54.708 L 102.556 55.333 106.169 55.333 C 110.104 55.333,109.982 55.362,110.457 54.333 C 111.077 52.992,111.343 46.219,110.847 44.417 C 110.634 43.645,109.950 42.494,109.623 42.358 C 108.237 41.782,108.378 38.203,109.841 36.833 C 110.200 36.497,111.333 35.052,111.333 34.930 C 111.333 34.781,111.177 34.821,109.809 35.321 M112.845 41.351 C 112.482 42.173,112.169 45.943,112.167 49.523 C 112.167 51.472,111.837 53.771,111.412 54.788 L 111.184 55.333 112.977 55.333 C 115.813 55.333,116.732 53.486,117.055 47.137 L 117.128 45.690 116.572 45.956 C 116.018 46.220,115.500 46.070,115.500 45.645 C 115.500 45.565,115.308 45.105,115.074 44.624 C 114.840 44.143,114.384 43.112,114.061 42.333 C 113.301 40.501,113.242 40.454,112.845 41.351 M96.136 41.585 C 95.712 42.283,94.598 46.188,94.242 48.225 C 93.357 53.285,94.650 55.197,99.033 55.307 L 101.315 55.365 100.594 53.891 C 100.197 53.080,99.522 51.554,99.092 50.500 C 98.663 49.446,98.213 48.358,98.091 48.083 C 97.825 47.483,97.412 46.003,97.252 45.083 C 97.188 44.717,97.029 44.229,96.898 44.000 C 96.768 43.771,96.565 43.097,96.448 42.502 C 96.331 41.907,96.191 41.494,96.136 41.585 M94.333 57.417 L 94.333 58.500 105.167 58.500 L 116.000 58.500 116.000 57.417 L 116.000 56.333 105.167 56.333 L 94.333 56.333 94.333 57.417 M97.036 60.625 C 97.143 60.877,97.323 61.196,97.434 61.333 C 97.705 61.667,98.441 63.344,98.859 64.583 C 99.045 65.133,99.257 65.658,99.331 65.750 C 99.611 66.098,100.797 70.300,100.930 71.417 C 101.006 72.058,101.082 72.658,101.098 72.750 C 101.115 72.842,101.137 73.198,101.147 73.542 L 101.167 74.167 105.252 74.167 L 109.337 74.167 109.233 73.514 C 109.111 72.752,109.464 70.000,109.684 70.000 C 109.766 70.000,109.833 69.865,109.833 69.699 C 109.833 69.533,109.975 68.952,110.148 68.407 C 110.320 67.862,110.592 66.929,110.751 66.333 C 111.037 65.266,112.165 62.385,112.807 61.084 C 113.282 60.122,113.666 60.167,104.910 60.167 L 96.840 60.167 97.036 60.625 M100.033 75.958 L 100.083 76.917 105.208 76.961 L 110.333 77.005 110.333 76.002 L 110.333 75.000 105.158 75.000 L 99.983 75.000 100.033 75.958 M101.450 77.792 C 101.412 77.860,101.437 78.517,101.507 79.250 C 101.577 79.983,101.836 83.021,102.083 86.000 C 102.331 88.979,102.574 91.529,102.624 91.667 C 102.674 91.804,102.733 92.404,102.755 93.000 C 102.857 95.786,102.836 95.627,103.048 95.167 C 103.154 94.938,103.288 94.712,103.346 94.667 C 103.479 94.560,104.127 92.681,104.235 92.086 C 104.320 91.620,104.819 90.019,104.954 89.784 C 105.079 89.563,105.500 90.016,105.500 90.372 C 105.500 91.184,107.233 96.194,107.378 95.802 C 107.507 95.457,107.969 90.354,108.250 86.167 C 108.309 85.296,108.445 83.383,108.553 81.917 C 108.662 80.450,108.727 78.894,108.699 78.458 L 108.648 77.667 105.084 77.667 C 103.124 77.667,101.488 77.723,101.450 77.792 M133.333 97.667 L 133.333 113.500 134.750 113.500 L 136.167 113.500 136.167 97.667 L 136.167 81.833 134.750 81.833 L 133.333 81.833 133.333 97.667 M104.064 97.292 L 103.211 99.750 100.438 99.833 L 97.665 99.917 99.833 101.500 C 101.025 102.371,102.000 103.146,102.000 103.222 C 102.000 103.298,101.781 103.979,101.514 104.736 C 101.247 105.493,100.991 106.331,100.945 106.598 C 100.900 106.865,100.746 107.403,100.605 107.793 L 100.347 108.503 101.880 107.460 C 102.723 106.886,103.489 106.337,103.582 106.240 C 103.674 106.144,104.016 105.870,104.341 105.633 L 104.932 105.202 105.565 105.674 C 105.913 105.933,106.285 106.254,106.391 106.386 C 106.687 106.757,109.006 108.383,109.101 108.288 C 109.147 108.241,109.077 107.839,108.945 107.393 C 108.299 105.221,107.833 103.493,107.833 103.266 C 107.833 103.127,108.827 102.355,110.042 101.549 L 112.250 100.083 109.417 99.943 C 107.858 99.866,106.572 99.791,106.557 99.776 C 106.543 99.762,106.496 99.525,106.453 99.250 C 106.351 98.599,105.115 94.833,105.003 94.834 C 104.955 94.834,104.533 95.940,104.064 97.292 M104.333 108.323 C 104.104 108.491,103.586 108.843,103.181 109.106 L 102.445 109.583 102.485 112.997 C 102.506 114.875,102.583 116.450,102.655 116.497 C 102.727 116.545,102.828 117.558,102.879 118.750 C 102.991 121.353,103.549 124.053,104.386 126.042 C 104.774 126.963,105.703 126.967,106.087 126.049 C 107.101 123.622,107.442 118.980,107.106 112.167 L 106.963 109.250 106.054 108.625 C 105.028 107.919,104.914 107.899,104.333 108.323 M155.333 122.825 C 152.708 123.343,151.665 126.372,153.436 128.333 C 155.430 130.540,159.266 129.440,159.607 126.564 C 159.889 124.182,157.785 122.342,155.333 122.825 M142.000 126.167 L 142.000 129.500 142.583 129.500 L 143.167 129.500 143.167 128.083 L 143.167 126.667 144.750 126.667 L 146.333 126.667 146.333 126.167 L 146.333 125.667 144.750 125.667 L 143.167 125.667 143.167 124.750 L 143.167 123.833 144.917 123.833 L 146.667 123.833 146.667 123.333 L 146.667 122.833 144.333 122.833 L 142.000 122.833 142.000 126.167 M166.333 126.167 L 166.333 129.500 166.917 129.500 L 167.500 129.500 167.500 128.500 L 167.500 127.500 168.459 127.500 L 169.418 127.500 170.043 128.500 C 170.619 129.422,170.715 129.500,171.270 129.500 L 171.872 129.500 171.574 129.042 C 171.411 128.790,171.094 128.305,170.870 127.964 L 170.464 127.345 171.049 126.793 C 172.191 125.716,171.989 123.786,170.667 123.125 C 170.215 122.900,169.659 122.834,168.208 122.834 L 166.333 122.833 166.333 126.167 M186.000 123.333 L 186.000 123.833 187.083 123.833 L 188.167 123.833 188.167 126.667 L 188.167 129.500 188.667 129.500 L 189.167 129.500 189.167 126.667 L 189.167 123.833 190.250 123.833 L 191.333 123.833 191.333 123.333 L 191.333 122.833 188.667 122.833 L 186.000 122.833 186.000 123.333 M197.833 126.167 L 197.833 129.500 198.417 129.500 L 199.000 129.500 199.000 128.083 L 199.000 126.667 200.750 126.667 L 202.500 126.667 202.500 128.083 L 202.500 129.500 203.083 129.500 L 203.667 129.500 203.667 126.167 L 203.667 122.833 203.083 122.833 L 202.500 122.833 202.500 124.250 L 202.500 125.667 200.750 125.667 L 199.000 125.667 199.000 124.250 L 199.000 122.833 198.417 122.833 L 197.833 122.833 197.833 126.167 M210.833 126.167 L 210.833 129.500 213.333 129.500 L 215.833 129.500 215.833 129.000 L 215.833 128.500 213.917 128.500 L 212.000 128.500 212.000 127.583 L 212.000 126.667 213.667 126.667 L 215.333 126.667 215.333 126.167 L 215.333 125.667 213.667 125.667 L 212.000 125.667 212.000 124.750 L 212.000 123.833 213.833 123.833 L 215.667 123.833 215.667 123.333 L 215.667 122.833 213.250 122.833 L 210.833 122.833 210.833 126.167 M230.667 126.167 L 230.667 129.500 231.250 129.500 L 231.833 129.500 231.833 128.083 L 231.833 126.667 233.333 126.667 L 234.833 126.667 234.833 126.167 L 234.833 125.667 233.333 125.667 L 231.833 125.667 231.833 124.750 L 231.833 123.833 233.500 123.833 L 235.167 123.833 235.167 123.333 L 235.167 122.833 232.917 122.833 L 230.667 122.833 230.667 126.167 M241.530 125.322 C 241.599 128.557,242.078 129.317,244.141 129.466 C 246.619 129.645,247.333 128.684,247.333 125.173 L 247.333 122.833 246.750 122.833 L 246.167 122.833 246.167 125.179 L 246.167 127.526 245.679 128.013 C 245.031 128.662,243.918 128.700,243.218 128.098 C 242.750 127.697,242.750 127.694,242.696 125.265 L 242.642 122.833 242.059 122.833 L 241.476 122.833 241.530 125.322 M253.667 123.333 L 253.667 123.833 254.750 123.833 L 255.833 123.833 255.833 126.667 L 255.833 129.500 256.417 129.500 L 257.000 129.500 257.000 126.667 L 257.000 123.833 258.000 123.833 L 259.000 123.833 259.000 123.333 L 259.000 122.833 256.333 122.833 L 253.667 122.833 253.667 123.333 M265.359 125.208 C 265.440 128.564,265.954 129.353,268.130 129.463 C 270.561 129.586,271.167 128.758,271.167 125.309 L 271.167 122.833 270.667 122.833 L 270.167 122.833 270.167 124.892 C 270.167 127.787,269.805 128.500,268.333 128.500 C 266.848 128.500,266.500 127.835,266.500 124.992 L 266.500 122.833 265.901 122.833 L 265.302 122.833 265.359 125.208 M278.333 126.167 L 278.333 129.500 278.917 129.500 L 279.500 129.500 279.500 128.500 L 279.500 127.500 280.467 127.500 L 281.434 127.500 282.009 128.498 C 282.552 129.442,282.618 129.496,283.218 129.498 C 283.928 129.500,283.943 129.581,282.972 128.136 C 282.379 127.253,282.358 127.181,282.664 127.084 C 283.643 126.773,284.093 124.792,283.416 123.769 C 282.928 123.030,282.246 122.833,280.172 122.833 L 278.333 122.833 278.333 126.167 M290.833 126.167 L 290.833 129.500 293.250 129.500 L 295.667 129.500 295.667 129.000 L 295.667 128.500 293.750 128.500 L 291.833 128.500 291.833 127.583 L 291.833 126.667 293.500 126.667 L 295.167 126.667 295.167 126.167 L 295.167 125.667 293.500 125.667 L 291.833 125.667 291.833 124.750 L 291.833 123.833 293.667 123.833 L 295.500 123.833 295.500 123.333 L 295.500 122.833 293.167 122.833 L 290.833 122.833 290.833 126.167 M157.421 124.169 C 158.543 124.863,158.838 126.688,157.978 127.610 C 156.463 129.231,154.005 128.514,153.717 126.367 C 153.465 124.488,155.746 123.134,157.421 124.169 M170.333 124.167 C 171.364 125.197,170.572 126.347,168.751 126.464 L 167.500 126.544 167.500 125.189 L 167.500 123.833 168.750 123.833 C 169.778 123.833,170.059 123.893,170.333 124.167 M282.333 124.167 C 283.417 125.250,282.376 126.500,280.392 126.500 L 279.500 126.500 279.500 125.167 L 279.500 123.833 280.750 123.833 C 281.778 123.833,282.059 123.893,282.333 124.167 " stroke="none" fill="#04bdde" fill-rule="evenodd" style="--darkreader-inline-fill: var(--darkreader-background-04bdde, #0397b2); --darkreader-inline-stroke: none; opacity: 1;" data-darkreader-inline-fill="" data-darkreader-inline-stroke="" data-index="4"></path><path id="path3" d="M201.208 31.282 C 201.369 31.323,201.631 31.323,201.792 31.282 C 201.952 31.240,201.821 31.205,201.500 31.205 C 201.179 31.205,201.048 31.240,201.208 31.282 M305.875 53.417 C 305.877 53.783,305.911 53.914,305.951 53.706 C 305.991 53.499,305.990 53.199,305.948 53.040 C 305.906 52.880,305.874 53.050,305.875 53.417 M178.205 53.500 C 178.205 53.821,178.240 53.952,178.282 53.792 C 178.323 53.631,178.323 53.369,178.282 53.208 C 178.240 53.048,178.205 53.179,178.205 53.500 M167.903 91.667 C 167.903 93.454,167.928 94.185,167.958 93.292 C 167.988 92.398,167.988 90.935,167.958 90.042 C 167.928 89.148,167.903 89.879,167.903 91.667 M173.903 91.667 C 173.903 93.454,173.928 94.185,173.958 93.292 C 173.988 92.398,173.988 90.935,173.958 90.042 C 173.928 89.148,173.903 89.879,173.903 91.667 M177.574 105.500 C 177.574 108.204,177.597 109.310,177.625 107.958 C 177.653 106.606,177.653 104.394,177.625 103.042 C 177.597 101.690,177.574 102.796,177.574 105.500 M146.562 108.583 C 146.563 109.592,146.590 109.983,146.623 109.452 C 146.657 108.922,146.656 108.097,146.623 107.619 C 146.589 107.141,146.562 107.575,146.562 108.583 " stroke="none" fill="#8c8c8c" fill-rule="evenodd" style="--darkreader-inline-fill: var(--darkreader-background-8c8c8c, #596064); --darkreader-inline-stroke: none;" data-darkreader-inline-fill="" data-darkreader-inline-stroke="" data-index="6"></path><path id="path4" d="M111.014 35.397 L 110.612 35.917 111.089 35.463 C 111.351 35.214,111.532 34.980,111.491 34.944 C 111.450 34.907,111.236 35.111,111.014 35.397 M106.623 36.729 C 105.669 37.316,105.640 37.455,106.583 36.922 C 107.542 36.380,107.611 36.331,107.403 36.339 C 107.319 36.341,106.968 36.517,106.623 36.729 M109.821 36.880 C 109.533 37.104,108.578 38.667,108.730 38.667 C 108.782 38.667,108.937 38.449,109.075 38.182 C 109.213 37.916,109.421 37.597,109.538 37.473 C 110.169 36.805,110.316 36.497,109.821 36.880 M103.833 38.750 C 103.428 39.162,103.135 39.500,103.181 39.500 C 103.226 39.500,103.595 39.162,104.000 38.750 C 104.405 38.337,104.699 38.000,104.653 38.000 C 104.607 38.000,104.238 38.337,103.833 38.750 M101.926 39.089 C 101.749 39.223,101.688 39.333,101.792 39.333 C 101.895 39.333,102.027 39.258,102.083 39.167 C 102.140 39.075,102.266 39.000,102.364 39.000 C 102.480 39.000,102.474 39.080,102.346 39.235 C 102.196 39.415,102.197 39.499,102.351 39.594 C 102.479 39.673,102.508 39.648,102.432 39.525 C 102.364 39.415,102.431 39.285,102.587 39.226 C 102.806 39.141,102.817 39.092,102.639 38.979 C 102.347 38.795,102.307 38.801,101.926 39.089 M95.868 41.792 C 95.522 42.710,95.333 43.389,95.405 43.460 C 95.445 43.500,95.594 43.141,95.736 42.662 C 95.878 42.183,96.080 41.688,96.184 41.562 C 96.298 41.425,96.308 41.333,96.207 41.333 C 96.116 41.333,95.963 41.540,95.868 41.792 M109.011 41.440 C 109.005 41.544,109.148 41.807,109.328 42.023 C 109.508 42.240,109.658 42.323,109.661 42.208 C 109.664 42.094,109.603 42.000,109.525 42.000 C 109.448 42.000,109.303 41.831,109.203 41.625 C 109.104 41.419,109.017 41.335,109.011 41.440 M113.678 41.417 C 113.678 41.508,113.786 41.771,113.917 42.000 C 114.048 42.229,114.155 42.342,114.155 42.250 C 114.155 42.158,114.048 41.896,113.917 41.667 C 113.786 41.438,113.678 41.325,113.678 41.417 M112.102 46.625 C 112.046 48.252,111.972 50.333,111.938 51.250 C 111.898 52.283,111.922 52.663,111.999 52.250 C 112.134 51.523,112.384 43.667,112.272 43.667 C 112.234 43.667,112.157 44.998,112.102 46.625 M97.351 45.583 C 97.342 45.675,97.515 46.313,97.734 47.000 C 97.954 47.688,98.141 48.175,98.149 48.083 C 98.158 47.992,97.985 47.354,97.766 46.667 C 97.546 45.979,97.359 45.492,97.351 45.583 M100.013 49.732 C 99.991 49.984,100.689 52.241,100.838 52.397 C 100.914 52.478,100.795 51.954,100.573 51.232 C 100.112 49.738,100.032 49.523,100.013 49.732 M116.058 53.260 C 115.866 53.850,115.757 54.333,115.817 54.333 C 115.940 54.333,116.562 52.339,116.468 52.246 C 116.435 52.213,116.251 52.669,116.058 53.260 M111.593 53.593 C 111.530 53.927,111.512 54.234,111.553 54.275 C 111.593 54.316,111.678 54.075,111.741 53.741 C 111.803 53.406,111.821 53.099,111.781 53.059 C 111.740 53.018,111.655 53.258,111.593 53.593 M115.154 54.958 L 114.750 55.417 115.250 55.000 C 115.525 54.771,115.781 54.565,115.819 54.542 C 115.858 54.519,115.814 54.500,115.723 54.500 C 115.633 54.500,115.376 54.706,115.154 54.958 M237.578 65.250 C 237.578 70.567,237.599 72.766,237.625 70.137 C 237.651 67.508,237.651 63.158,237.625 60.470 C 237.599 57.782,237.578 59.933,237.578 65.250 M116.055 57.417 C 116.055 58.058,116.086 58.300,116.122 57.955 C 116.158 57.609,116.157 57.084,116.120 56.788 C 116.083 56.492,116.054 56.775,116.055 57.417 M97.764 62.149 C 97.911 62.695,98.663 64.295,98.665 64.064 C 98.666 63.962,98.440 63.400,98.162 62.814 C 97.884 62.229,97.705 61.930,97.764 62.149 M111.194 64.757 C 111.087 64.991,111.003 65.273,111.007 65.383 C 111.010 65.493,111.124 65.328,111.259 65.016 C 111.544 64.360,111.484 64.121,111.194 64.757 M100.190 68.583 C 100.183 68.675,100.320 69.237,100.494 69.833 C 100.668 70.429,100.810 70.767,100.811 70.583 C 100.813 70.235,100.209 68.292,100.190 68.583 M109.415 70.844 C 109.313 71.588,109.379 72.025,109.562 71.819 C 109.690 71.675,109.779 70.000,109.658 70.000 C 109.588 70.000,109.479 70.380,109.415 70.844 M109.169 72.764 C 109.171 73.215,109.243 73.696,109.331 73.833 C 109.436 73.999,109.458 73.748,109.394 73.083 C 109.275 71.837,109.166 71.682,109.169 72.764 M101.039 73.500 C 101.039 73.821,101.073 73.952,101.115 73.792 C 101.157 73.631,101.157 73.369,101.115 73.208 C 101.073 73.048,101.039 73.179,101.039 73.500 M108.714 78.417 C 108.716 78.875,108.748 79.043,108.786 78.789 C 108.825 78.536,108.824 78.161,108.784 77.956 C 108.744 77.751,108.713 77.958,108.714 78.417 M222.128 85.287 C 222.428 85.325,222.878 85.324,223.128 85.286 C 223.378 85.248,223.133 85.217,222.583 85.218 C 222.033 85.219,221.828 85.250,222.128 85.287 M272.292 85.287 C 272.590 85.324,273.077 85.324,273.375 85.287 C 273.673 85.250,273.429 85.220,272.833 85.220 C 272.237 85.220,271.994 85.250,272.292 85.287 M102.293 90.167 C 102.340 90.854,102.407 91.448,102.440 91.486 C 102.555 91.619,102.466 89.747,102.337 89.333 C 102.263 89.098,102.244 89.461,102.293 90.167 M104.921 89.856 C 104.511 90.986,104.341 91.563,104.402 91.624 C 104.441 91.664,104.606 91.276,104.768 90.762 C 105.057 89.846,105.222 89.753,105.381 90.417 C 105.457 90.733,105.462 90.732,105.481 90.395 C 105.505 89.952,105.047 89.511,104.921 89.856 M102.500 92.796 C 102.500 93.447,102.560 94.017,102.634 94.063 C 102.796 94.163,102.779 91.890,102.616 91.727 C 102.552 91.663,102.500 92.144,102.500 92.796 M103.049 95.173 C 102.946 95.445,102.923 95.667,102.996 95.667 C 103.133 95.667,103.396 94.841,103.292 94.737 C 103.261 94.705,103.151 94.902,103.049 95.173 M98.040 100.264 C 98.095 100.352,98.496 100.680,98.932 100.993 C 99.368 101.306,99.681 101.491,99.626 101.403 C 99.572 101.315,99.171 100.987,98.735 100.673 C 98.298 100.360,97.986 100.176,98.040 100.264 M108.250 102.765 L 107.750 103.194 108.292 102.836 C 108.590 102.639,108.833 102.445,108.833 102.405 C 108.833 102.281,108.763 102.324,108.250 102.765 M219.125 104.623 C 219.698 104.656,220.635 104.656,221.208 104.623 C 221.781 104.591,221.313 104.564,220.167 104.564 C 219.021 104.564,218.552 104.591,219.125 104.623 M101.769 107.499 C 100.977 108.099,100.810 108.270,101.250 108.031 C 101.632 107.823,102.625 107.013,102.500 107.011 C 102.454 107.010,102.125 107.230,101.769 107.499 M108.960 107.417 C 109.003 107.600,109.049 107.918,109.061 108.123 C 109.073 108.328,109.176 108.532,109.290 108.576 C 109.467 108.643,109.486 108.248,109.326 107.833 C 109.308 107.787,109.303 107.694,109.314 107.625 C 109.324 107.556,109.264 107.500,109.179 107.500 C 109.094 107.500,108.992 107.406,108.953 107.292 C 108.913 107.177,108.917 107.233,108.960 107.417 M107.750 107.578 C 108.253 108.019,108.833 108.397,108.833 108.284 C 108.833 108.251,108.477 107.979,108.042 107.682 C 107.442 107.272,107.372 107.247,107.750 107.578 M104.250 108.271 C 103.909 108.561,103.866 108.638,104.116 108.514 C 104.317 108.414,104.528 108.257,104.584 108.166 C 104.755 107.888,105.158 107.978,105.803 108.437 L 106.417 108.875 105.833 108.358 C 105.126 107.733,104.897 107.720,104.250 108.271 M107.123 112.250 C 107.169 113.992,107.236 115.448,107.270 115.486 C 107.372 115.598,107.305 112.557,107.166 110.750 C 107.078 109.609,107.065 110.082,107.123 112.250 M102.295 112.307 C 102.366 116.234,102.436 116.652,102.467 113.333 C 102.482 111.638,102.440 110.163,102.372 110.057 C 102.305 109.950,102.270 110.963,102.295 112.307 M102.500 117.750 C 102.500 118.472,102.570 119.000,102.667 119.000 C 102.763 119.000,102.833 118.472,102.833 117.750 C 102.833 117.028,102.763 116.500,102.667 116.500 C 102.570 116.500,102.500 117.028,102.500 117.750 M107.214 120.417 C 107.216 120.875,107.248 121.043,107.286 120.789 C 107.325 120.536,107.324 120.161,107.284 119.956 C 107.244 119.751,107.213 119.958,107.214 120.417 M106.924 122.458 C 106.860 122.985,106.775 123.604,106.734 123.833 C 106.669 124.193,106.679 124.204,106.808 123.917 C 106.979 123.536,107.241 121.500,107.119 121.500 C 107.075 121.500,106.987 121.931,106.924 122.458 M291.885 124.750 C 291.886 125.300,291.917 125.505,291.954 125.205 C 291.991 124.906,291.990 124.456,291.952 124.205 C 291.914 123.955,291.884 124.200,291.885 124.750 M291.885 127.583 C 291.886 128.133,291.917 128.338,291.954 128.039 C 291.991 127.739,291.990 127.289,291.952 127.039 C 291.914 126.788,291.884 127.033,291.885 127.583 " stroke="none" fill="#a0e4f0" fill-rule="evenodd" style="--darkreader-inline-fill: var(--darkreader-background-a0e4f0, #105865); --darkreader-inline-stroke: none;" data-darkreader-inline-fill="" data-darkreader-inline-stroke="" data-index="7"></path></g></svg>